<?xml version="1.0" encoding="utf-8"?>
<!-- Svg Vector Icons : http://www.onlinewebfonts.com/icon -->
<!DOCTYPE svg PUBLIC "-//W3C//DTD SVG 1.1//EN" "http://www.w3.org/Graphics/SVG/1.1/DTD/svg11.dtd">
      <svg version="1.1" xmlns="http://www.w3.org/2000/svg" xmlns:xlink="http://www.w3.org/1999/xlink" x="0px" y="0px" enable-background="new 0 0 1000 1000" xml:space="preserve" viewBox="0 0 575 575" class="roots-wrapper">
        <g transform="rotate(0 0 0)"><svg data-root-id="4780032454142" x="95.66" y="20" xmlns="http://www.w3.org/2000/svg" preserveAspectRatio="xMinYMin" height="381.68" width="381.68" zoom="1" editorType="buyer" data-layer-role="ellipse" style="top: 20px; left: 95.66px; fill: rgb(230, 225, 225); width: 381.68px; height: 381.68px; position: absolute; fill-opacity: 1;"><rect rx="50%" ry="50%" y="3" x="3" height="375.68" width="375.68" data-layer-id="1183485354176" style="stroke-width: 6; stroke: rgb(64, 65, 69); width: 375.68px; height: 375.68px; top: 3px; left: 3px;"></rect></svg></g><g transform="rotate(0 0 0)"><svg data-root-id="5040753353775" xmlns="http://www.w3.org/2000/svg" xmlns:xlink="http://www.w3.org/1999/xlink" version="1.1" id="Layer_1" x="165.43" y="50.67" viewBox="268.65667724609375 110.29998779296875 271.56182861328125 352.4000244140625" xml:space="preserve" height="319.72" width="244.24" preserveAspectRatio="xMinYMin" zoom="1" editorType="buyer" data-layer-role="icon" style="position: absolute; height: 319.72px; width: 244.236px; top: 50.6726px; left: 165.432px;"><rect x="286.3" y="177.3" class="st0" width="31.5" height="110.2" name="Layer 1" zoom="1" data-layer-id="1819232253807" style="fill: rgb(237, 27, 52); fill-opacity: 1;"></rect><path class="st1" d="M480.1,195.6l-31.8,26.8c-8.1-9.6-17.8-20-29.4-30.8l31.5-32.5C459.8,169.6,469.9,181.9,480.1,195.6z" name="Layer 2" zoom="1" data-layer-id="0024606753823" style="fill: rgb(171, 45, 45); fill-opacity: 1;"></path><path class="st1" d="M399.4,187.8c-7.1,7.6-18.7,20.6-30.5,35.3l-33.2-30.6c8.3-10.6,17.9-22.2,28.9-34.4L399.4,187.8z" name="Layer 3" zoom="1" data-layer-id="6861267253837" style="fill: rgb(171, 45, 45); fill-opacity: 1;"></path><path class="st1" d="M334.4,273.6c0.3-0.5,0.6-1.1,0.8-1.6c6.6-12.8,16.4-26.9,26.6-40.1l-33.1-30.5   c-14.4,19.1-24.2,34.5-30.1,44.5l-6.4,11.4c-0.4,0.8-0.6,1.2-0.6,1.2c-61.7,134.8,55.4,195.7,56.9,196.5   c-74.6-67.3-41.1-131.3-19.2-171.9L334.4,273.6z" name="Layer 4" zoom="1" data-layer-id="5597049753852" style="fill: rgb(171, 45, 45); fill-opacity: 1;"></path><path class="st1" d="M441.1,148.9l-31.4,32.4l-36.1-33.2c9.9-10.6,20.7-21.6,32.7-32.8C406.3,115.3,421,127.5,441.1,148.9z" name="Layer 5" zoom="1" data-layer-id="6986045253875" style="fill: rgb(171, 45, 45); fill-opacity: 1;"></path><path class="st1" d="M511.8,244.5l-30.7,25.9c-2.4-4.8-10.3-19.9-26.1-39.8l31.3-26.4C495.1,216.7,503.8,230.2,511.8,244.5z" name="Layer 6" zoom="1" data-layer-id="6703689453893" style="fill: rgb(171, 45, 45); fill-opacity: 1;"></path><path class="st1" d="M452,454.7c6.5-4.3,97.5-67.6,34.6-174.9l31.6-23.2c0.3,0.6,0.6,1.2,0.9,1.9   C561.7,343.1,513.1,417.8,452,454.7z" name="Layer 7" zoom="1" data-layer-id="2837232153911" style="fill: rgb(171, 45, 45); fill-opacity: 1;"></path><path class="st0" d="M434.9,457.7c0,0,48.7-47.5,5.6-128.4l32-35.2C472.5,294.1,523.2,398.8,434.9,457.7z M467.7,284.3  c0,0-13.5-24.7-23.2-38.2l-28.9,33.4l21.2,35.5L467.7,284.3z M372.4,312.1c0,0,13.8-20.8,23.6-31.5l-26.5-34.5l-15,17.7l-12.9,20.7  L372.4,312.1z M337.1,294.1c0,0-60.3,96.3,31.8,163.6c0,0-51.2-55.2-1.9-132.1L337.1,294.1z M409.8,204.2l-32.1,33.2l28.8,33.2  l31.6-33.2L409.8,204.2z" name="Layer 8" zoom="1" data-layer-id="5851384553932" style="fill: rgb(237, 27, 52); fill-opacity: 1;"></path><rect x="366.6" y="352.8" class="st2" width="29.9" height="29.9" name="Layer 9" zoom="1" data-layer-id="9040261553959" style="fill: rgb(252, 179, 179); fill-opacity: 1;"></rect><rect x="406.5" y="352.8" class="st2" width="29.9" height="29.9" name="Layer 10" zoom="1" data-layer-id="4972424453986" style="fill: rgb(252, 179, 179); fill-opacity: 1;"></rect><rect x="366.6" y="391.4" class="st2" width="29.9" height="29.9" name="Layer 11" zoom="1" data-layer-id="8321416654008" style="fill: rgb(252, 179, 179); fill-opacity: 1;"></rect><rect x="406.5" y="391.4" class="st2" width="29.9" height="29.9" name="Layer 12" zoom="1" data-layer-id="2449071254027" style="fill: rgb(252, 179, 179); fill-opacity: 1;"></rect></svg></g><g transform="rotate(0 0 0)"><svg data-root-id="1484703754094" xmlns="http://www.w3.org/2000/svg" y="527" viewBox="2.1600000858306885 9.4399995803833 297.5 25.479999542236328" x="138.75" height="25.48" width="297.5" fontUrl="http://fonts.gstatic.com/s/hind/v10/5aU69_a8oxmIRG5yBROzkDM.ttf" zoom="1" editorType="buyer" data-layer-role="slogan" style="position: absolute; top: 527px; width: 297.5px; height: 25.48px; left: 138.75px;"><g data-horizontal-grow="center" zoom="1" root="[object Object]" style="fill: rgb(0, 0, 0);"><path d="M4.42 20.97L4.42 27.61L8.71 27.61Q10.50 27.61 11.47 26.78Q12.43 25.96 12.43 24.36Q12.43 22.76 11.35 21.87Q10.28 20.97 8.29 20.97L8.29 20.97L4.42 20.97ZM7.84 12.60L4.42 12.60L4.42 19.04L7.45 19.04Q9.72 19.04 10.81 18.09Q11.90 17.14 11.90 15.62L11.90 15.62Q11.90 14.31 10.88 13.45Q9.86 12.60 7.84 12.60L7.84 12.60ZM2.16 29.54L2.16 10.67L7.84 10.67Q10.75 10.67 12.50 12.01Q14.25 13.36 14.25 15.62L14.25 15.62Q14.25 17.25 13.34 18.44Q12.43 19.63 11.00 19.94L11.00 19.94Q12.57 20.19 13.68 21.35Q14.78 22.51 14.78 24.50L14.78 24.50Q14.78 26.77 13.29 28.15Q11.79 29.54 9.04 29.54L9.04 29.54L2.16 29.54ZM26.85 23.16L26.85 15.34L29.06 15.34L29.06 29.54L26.85 29.54L26.85 27.08Q25.73 29.71 22.40 29.71L22.40 29.71Q20.30 29.71 19.08 28.46Q17.86 27.22 17.86 25.12L17.86 25.12L17.86 15.34L20.08 15.34L20.08 24.56Q20.08 26.10 20.86 26.91Q21.64 27.72 22.99 27.72L22.99 27.72Q24.75 27.72 25.80 26.49Q26.85 25.26 26.85 23.16L26.85 23.16ZM35.48 29.54L33.26 29.54L33.26 15.34L35.48 15.34L35.48 29.54ZM33.33 11.91Q32.93 11.51 32.93 10.89Q32.93 10.28 33.33 9.86Q33.74 9.44 34.36 9.44Q34.97 9.44 35.39 9.86Q35.81 10.28 35.81 10.89Q35.81 11.51 35.39 11.91Q34.97 12.32 34.36 12.32Q33.74 12.32 33.33 11.91ZM42 29.54L39.79 29.54L39.79 9.74L42 9.74L42 29.54ZM51.60 27.75L51.60 27.75Q53.34 27.75 54.56 26.46Q55.78 25.17 55.78 22.34L55.78 22.34Q55.78 19.66 54.52 18.40Q53.26 17.14 51.74 17.14L51.74 17.14Q49.98 17.14 48.82 18.55Q47.66 19.96 47.66 22.60L47.66 22.60Q47.66 24.89 48.78 26.32Q49.90 27.75 51.60 27.75ZM55.78 17.50L55.78 9.74L57.99 9.74L57.99 29.54L55.78 29.54L55.78 27.44Q54.26 29.76 51.41 29.76L51.41 29.76Q48.58 29.76 46.97 27.66Q45.36 25.56 45.36 22.57L45.36 22.57Q45.36 19.24 47.07 17.18Q48.78 15.12 51.46 15.12L51.46 15.12Q54.24 15.12 55.78 17.50L55.78 17.50ZM64.40 29.54L62.19 29.54L62.19 15.34L64.40 15.34L64.40 29.54ZM62.26 11.91Q61.85 11.51 61.85 10.89Q61.85 10.28 62.26 9.86Q62.66 9.44 63.28 9.44Q63.90 9.44 64.32 9.86Q64.74 10.28 64.74 10.89Q64.74 11.51 64.32 11.91Q63.90 12.32 63.28 12.32Q62.66 12.32 62.26 11.91ZM68.60 15.34L70.78 15.34L70.78 17.81Q72.04 15.15 75.26 15.15L75.26 15.15Q77.34 15.15 78.57 16.41Q79.80 17.67 79.80 19.77L79.80 19.77L79.80 29.54L77.59 29.54L77.59 20.36Q77.59 18.79 76.79 17.96Q75.99 17.14 74.70 17.14L74.70 17.14Q73.11 17.14 71.95 18.37Q70.78 19.60 70.78 21.78L70.78 21.78L70.78 29.54L68.60 29.54L68.60 15.34ZM89.04 27.22L89.04 27.22Q90.58 27.22 91.77 26.03Q92.96 24.84 92.96 22.48L92.96 22.48Q92.96 19.77 91.81 18.45Q90.66 17.14 89.15 17.14L89.15 17.14Q87.33 17.14 86.27 18.58Q85.20 20.02 85.20 22.34L85.20 22.34Q85.20 24.72 86.38 25.97Q87.56 27.22 89.04 27.22ZM92.96 17.70L92.96 15.34L95.17 15.34L95.17 28.39Q95.17 31.64 93.38 33.28Q91.59 34.92 88.76 34.92L88.76 34.92Q86.18 34.92 84.36 34.05L84.36 34.05L84.36 31.84Q86.16 32.87 88.56 32.87L88.56 32.87Q90.61 32.87 91.78 31.78Q92.96 30.69 92.96 28.36L92.96 28.36L92.96 26.77Q91.56 29.18 88.79 29.18L88.79 29.18Q86.35 29.18 84.63 27.38Q82.91 25.59 82.91 22.40L82.91 22.40Q82.91 19.24 84.50 17.19Q86.10 15.15 88.68 15.15L88.68 15.15Q91.59 15.15 92.96 17.70L92.96 17.70ZM109.84 29.18L109.84 29.18L104.10 15.34L106.60 15.34L108.44 20.02L110.94 26.46Q111.16 25.73 113.18 20.02L113.18 20.02L114.83 15.34L117.21 15.34L112.08 29.18Q110.99 32.06 109.49 33.24Q108.00 34.41 106.06 34.41L106.06 34.41Q105.34 34.41 104.89 34.27L104.89 34.27L104.89 32.28Q105.31 32.40 105.84 32.40L105.84 32.40Q108.67 32.40 109.84 29.18ZM125.50 29.79L125.50 29.79Q122.44 29.79 120.67 27.73Q118.89 25.68 118.89 22.54L118.89 22.54Q118.89 19.38 120.72 17.26Q122.56 15.15 125.50 15.15L125.50 15.15Q128.72 15.15 130.47 17.22Q132.22 19.29 132.22 22.48L132.22 22.48Q132.22 25.65 130.42 27.72Q128.63 29.79 125.50 29.79ZM125.50 17.11L125.50 17.11Q123.48 17.11 122.33 18.68Q121.18 20.24 121.18 22.51L121.18 22.51Q121.18 24.72 122.36 26.28Q123.54 27.83 125.50 27.83L125.50 27.83Q127.62 27.83 128.77 26.31Q129.92 24.78 129.92 22.51L129.92 22.51Q129.92 20.16 128.83 18.63Q127.74 17.11 125.50 17.11ZM144.28 23.16L144.28 15.34L146.50 15.34L146.50 29.54L144.28 29.54L144.28 27.08Q143.16 29.71 139.83 29.71L139.83 29.71Q137.73 29.71 136.51 28.46Q135.30 27.22 135.30 25.12L135.30 25.12L135.30 15.34L137.51 15.34L137.51 24.56Q137.51 26.10 138.29 26.91Q139.08 27.72 140.42 27.72L140.42 27.72Q142.18 27.72 143.23 26.49Q144.28 25.26 144.28 23.16L144.28 23.16ZM150.58 15.34L152.77 15.34L152.77 17.84Q153.89 15.20 156.63 15.20L156.63 15.20Q157.14 15.20 157.42 15.26L157.42 15.26L157.42 17.44Q156.83 17.25 156.21 17.25L156.21 17.25Q154.73 17.25 153.75 18.62Q152.77 19.99 152.77 21.78L152.77 21.78L152.77 29.54L150.56 29.54L150.58 15.34ZM168 22.51L168 22.51Q168.03 24.81 169.40 26.33Q170.77 27.86 173.29 27.86L173.29 27.86Q174.92 27.86 176.32 26.94L176.32 26.94L176.32 29.04Q174.97 29.85 173.01 29.85L173.01 29.85Q169.65 29.85 167.68 27.71Q165.70 25.56 165.70 22.48L165.70 22.48Q165.70 19.46 167.68 17.28Q169.65 15.09 173.07 15.09L173.07 15.09Q174.89 15.09 176.32 15.88L176.32 15.88L176.32 17.98Q175.03 17.11 173.29 17.11L173.29 17.11Q170.88 17.11 169.44 18.66Q168 20.22 168 22.51ZM185.50 29.79L185.50 29.79Q182.45 29.79 180.67 27.73Q178.89 25.68 178.89 22.54L178.89 22.54Q178.89 19.38 180.73 17.26Q182.56 15.15 185.50 15.15L185.50 15.15Q188.72 15.15 190.47 17.22Q192.22 19.29 192.22 22.48L192.22 22.48Q192.22 25.65 190.43 27.72Q188.64 29.79 185.50 29.79ZM185.50 17.11L185.50 17.11Q183.48 17.11 182.34 18.68Q181.19 20.24 181.19 22.51L181.19 22.51Q181.19 24.72 182.36 26.28Q183.54 27.83 185.50 27.83L185.50 27.83Q187.63 27.83 188.78 26.31Q189.92 24.78 189.92 22.51L189.92 22.51Q189.92 20.16 188.83 18.63Q187.74 17.11 185.50 17.11ZM195.47 15.34L197.65 15.34L197.65 17.64Q198.83 15.15 201.66 15.15L201.66 15.15Q204.93 15.15 205.80 17.92L205.80 17.92Q206.42 16.58 207.52 15.86Q208.63 15.15 210.00 15.15L210.00 15.15Q212.21 15.15 213.33 16.41Q214.45 17.67 214.45 19.80L214.45 19.80L214.45 29.54L212.24 29.54L212.24 20.36Q212.24 17.14 209.52 17.14L209.52 17.14Q208.18 17.14 207.12 18.35Q206.05 19.57 206.05 21.78L206.05 21.78L206.05 29.54L203.84 29.54L203.84 20.36Q203.84 17.14 201.12 17.14L201.12 17.14Q199.78 17.14 198.72 18.35Q197.65 19.57 197.65 21.78L197.65 21.78L197.65 29.54L195.47 29.54L195.47 15.34ZM218.37 15.34L220.56 15.34L220.56 17.64Q221.73 15.15 224.56 15.15L224.56 15.15Q227.84 15.15 228.70 17.92L228.70 17.92Q229.32 16.58 230.43 15.86Q231.53 15.15 232.90 15.15L232.90 15.15Q235.12 15.15 236.24 16.41Q237.36 17.67 237.36 19.80L237.36 19.80L237.36 29.54L235.14 29.54L235.14 20.36Q235.14 17.14 232.43 17.14L232.43 17.14Q231.08 17.14 230.02 18.35Q228.96 19.57 228.96 21.78L228.96 21.78L228.96 29.54L226.74 29.54L226.74 20.36Q226.74 17.14 224.03 17.14L224.03 17.14Q222.68 17.14 221.62 18.35Q220.56 19.57 220.56 21.78L220.56 21.78L220.56 29.54L218.37 29.54L218.37 15.34ZM250.10 23.16L250.10 15.34L252.31 15.34L252.31 29.54L250.10 29.54L250.10 27.08Q248.98 29.71 245.64 29.71L245.64 29.71Q243.54 29.71 242.33 28.46Q241.11 27.22 241.11 25.12L241.11 25.12L241.11 15.34L243.32 15.34L243.32 24.56Q243.32 26.10 244.10 26.91Q244.89 27.72 246.23 27.72L246.23 27.72Q248.00 27.72 249.05 26.49Q250.10 25.26 250.10 23.16L250.10 23.16ZM256.40 15.34L258.58 15.34L258.58 17.81Q259.84 15.15 263.06 15.15L263.06 15.15Q265.13 15.15 266.36 16.41Q267.60 17.67 267.60 19.77L267.60 19.77L267.60 29.54L265.38 29.54L265.38 20.36Q265.38 18.79 264.59 17.96Q263.79 17.14 262.50 17.14L262.50 17.14Q260.90 17.14 259.74 18.37Q258.58 19.60 258.58 21.78L258.58 21.78L258.58 29.54L256.40 29.54L256.40 15.34ZM273.84 29.54L271.63 29.54L271.63 15.34L273.84 15.34L273.84 29.54ZM271.70 11.91Q271.29 11.51 271.29 10.89Q271.29 10.28 271.70 9.86Q272.10 9.44 272.72 9.44Q273.34 9.44 273.76 9.86Q274.18 10.28 274.18 10.89Q274.18 11.51 273.76 11.91Q273.34 12.32 272.72 12.32Q272.10 12.32 271.70 11.91ZM285.01 17.14L281.09 17.14L281.09 25.45Q281.09 27.72 283.22 27.72L283.22 27.72Q284.31 27.72 285.15 27.08L285.15 27.08L285.15 29.18Q284.23 29.68 283.08 29.68L283.08 29.68Q278.88 29.68 278.88 25.40L278.88 25.40L278.88 17.14L276.61 17.14L276.61 15.34L278.88 15.34L278.88 11.82L281.09 11.82L281.09 15.34L285.01 15.34L285.01 17.14ZM292.29 29.18L292.29 29.18L286.55 15.34L289.04 15.34L290.89 20.02L293.38 26.46Q293.61 25.73 295.62 20.02L295.62 20.02L297.28 15.34L299.66 15.34L294.53 29.18Q293.44 32.06 291.94 33.24Q290.44 34.41 288.51 34.41L288.51 34.41Q287.78 34.41 287.34 34.27L287.34 34.27L287.34 32.28Q287.76 32.40 288.29 32.40L288.29 32.40Q291.12 32.40 292.29 29.18Z" transform="translate(0, 0)"></path></g></svg></g><g transform="rotate(0 0 0)"><svg data-root-id="1280682654044" xmlns="http://www.w3.org/2000/svg" y="430" viewBox="6.900000095367432 25.700000762939453 303.1000061035156 75.10000610351562" x="135.94" height="75.1" width="303.1" fontUrl="http://fonts.gstatic.com/s/hind/v10/5aU19_a8oxmIfNJdIRuYjDpf5Vw.ttf" zoom="1" editorType="buyer" data-layer-role="brandName" style="position: absolute; top: 430px; width: 303.1px; height: 75.1px; left: 135.94px;"><g data-horizontal-grow="center" zoom="1" root="[object Object]" style="fill: rgb(237, 27, 52); fill-opacity: 1;"><path d="M24 100.70L24 100.70Q21.60 100.70 18.65 100.25Q15.70 99.80 13 98.25Q10.30 96.70 8.60 93.60Q6.90 90.50 6.90 85.10L6.90 85.10L6.90 42.50Q6.90 37.80 8.30 34.65Q9.70 31.50 12.05 29.70Q14.40 27.90 17.25 27.15Q20.10 26.40 22.90 26.40L22.90 26.40Q29.90 26.40 35.50 26.60Q41.10 26.80 45.75 27Q50.40 27.20 54.40 27.50L54.40 27.50L54.40 37.80L26.50 37.80Q23.10 37.80 21.15 39.50Q19.20 41.20 19.20 44.80L19.20 44.80L19.20 57.90L49.90 58.60L49.90 68.30L19.20 69L19.20 81.70Q19.20 84.70 20.25 86.30Q21.30 87.90 22.95 88.50Q24.60 89.10 26.40 89.10L26.40 89.10L54.40 89.10L54.40 99.40Q50 99.80 44.80 100.05Q39.60 100.30 34.25 100.45Q28.90 100.60 24 100.70ZM88.10 100.80L88.10 100.80Q85.40 100.80 82.35 100.65Q79.30 100.50 76.15 100.15Q73 99.80 70.20 99.45Q67.40 99.10 65.20 98.60L65.20 98.60L65.20 88.90Q68 89.10 71.75 89.30Q75.50 89.50 79.60 89.60Q83.70 89.70 87.50 89.70L87.50 89.70Q91.50 89.70 94.60 88.95Q97.70 88.20 99.40 86.30Q101.10 84.40 101.10 80.90L101.10 80.90L101.10 77.40Q101.10 73.50 98.90 71.40Q96.70 69.30 92.40 69.30L92.40 69.30L85.50 69.30Q75.40 69.30 69.95 64.90Q64.50 60.50 64.50 49.80L64.50 49.80L64.50 46Q64.50 35.30 70.45 30.55Q76.40 25.80 87.50 25.80L87.50 25.80Q91.30 25.80 95.35 26.15Q99.40 26.50 103.10 27Q106.80 27.50 109.40 28.10L109.40 28.10L109.40 37.80Q105 37.50 99.35 37.20Q93.70 36.90 88.90 36.90L88.90 36.90Q85.10 36.90 82.20 37.70Q79.30 38.50 77.80 40.55Q76.30 42.60 76.30 46.60L76.30 46.60L76.30 49Q76.30 53.70 78.85 55.60Q81.40 57.50 86.20 57.50L86.20 57.50L93.90 57.50Q100.40 57.50 104.60 59.90Q108.80 62.30 110.85 66.45Q112.90 70.60 112.90 75.90L112.90 75.90L112.90 80.60Q112.90 88.80 109.70 93.20Q106.50 97.60 100.90 99.20Q95.30 100.80 88.10 100.80ZM146 100.70L146 100.70Q139 100.70 134.55 98.20Q130.10 95.70 127.55 90.90Q125 86.10 123.95 79.10Q122.90 72.10 122.90 63.20L122.90 63.20Q122.90 54.10 124.05 47.10Q125.20 40.10 128.10 35.35Q131 30.60 136.15 28.15Q141.30 25.70 149.40 25.70L149.40 25.70Q154 25.70 158.20 26.05Q162.40 26.40 166.30 27.10Q170.20 27.80 173.90 28.70L173.90 28.70L173.90 38.20Q171.80 37.90 168.25 37.60Q164.70 37.30 160.40 37.05Q156.10 36.80 151.50 36.80L151.50 36.80Q144.90 36.80 141.40 39.35Q137.90 41.90 136.60 47.70Q135.30 53.50 135.30 63.30L135.30 63.30Q135.30 71 136 76.05Q136.70 81.10 138.35 84.05Q140 87 142.85 88.15Q145.70 89.30 149.80 89.30L149.80 89.30Q154.20 89.30 158.35 88.45Q162.50 87.60 165.30 86.60L165.30 86.60L165.30 69.60L150.40 69.60L150.40 60Q152.40 59.70 155.25 59.50Q158.10 59.30 161.20 59.15Q164.30 59 167.30 59L167.30 59Q170.30 59 172.75 59.05Q175.20 59.10 177.20 59.30L177.20 59.30L177.20 100.20L167.90 100.20L166.20 95.10Q163.10 96.90 157.70 98.80Q152.30 100.70 146 100.70ZM199 100.20L186.30 100.20L210.30 26.40L225.90 26.40L249.90 100.20L237 100.20L231.30 82.70L204.60 82.70L199 100.20ZM217.90 37L207.50 71.60L228.30 71.60L217.90 37ZM288.40 100.20L259 100.20L259 26.40L287.20 26.40Q297.60 26.40 302.60 31.30Q307.60 36.20 307.60 45.60L307.60 45.60Q307.60 50 306.25 53.35Q304.90 56.70 302.60 58.85Q300.30 61 297.20 61.80L297.20 61.80Q299.50 62.40 301.75 63.65Q304 64.90 305.90 67.10Q307.80 69.30 308.90 72.45Q310 75.60 310 79.80L310 79.80Q310 87.40 307.45 91.85Q304.90 96.30 300.05 98.25Q295.20 100.20 288.40 100.20L288.40 100.20ZM271.30 67.20L271.30 89.10L288 89.10Q291.10 89.10 293.40 88Q295.70 86.90 296.95 84.45Q298.20 82 298.20 77.70L298.20 77.70Q298.20 74.30 296.90 72Q295.60 69.70 293.30 68.45Q291 67.20 288 67.20L288 67.20L271.30 67.20ZM271.30 37.50L271.30 57.60L287.40 57.60Q291.10 57.60 293.40 54.85Q295.70 52.10 295.80 47.60L295.80 47.60Q295.90 41.90 293.35 39.70Q290.80 37.50 287.10 37.50L287.10 37.50L271.30 37.50Z" transform="translate(0, 0)"></path></g></svg></g></svg>
